HIERARCHY
ROOT Hips
{
     OFFSET 1.88212 96.90440 -13.34250
     CHANNELS 6 Xposition Yposition Zposition Zrotation Xrotation Yrotation
     JOINT Spine
     {
          OFFSET 0.00000 11.89050 0.00000
          CHANNELS 3 Zrotation Xrotation Yrotation
          JOINT Spine1
          {
               OFFSET -0.00000 25.65740 0.12766
               CHANNELS 3 Zrotation Xrotation Yrotation
               JOINT HEad
               {
                    OFFSET 0.00000 8.73416 0.01134
                    CHANNELS 3 Zrotation Xrotation Yrotation
                    End Site
                    {
                         OFFSET -0.29000 12.77420 2.51395
                    }
               }
               JOINT LeftShoulder1
               {
                    OFFSET 8.99000 -0.36225 -0.22000
                    CHANNELS 3 Zrotation Xrotation Yrotation
                    JOINT LeftArm
                    {
                         OFFSET 10.28270 -0.00338 0.32212
                         CHANNELS 3 Zrotation Xrotation Yrotation
                         JOINT LeftForeArm
                         {
                              OFFSET 32.76690 0.09914 -1.42434
                              CHANNELS 3 Zrotation Xrotation Yrotation
                              JOINT LeftHand
                              {
                                   OFFSET 27.56430 0.08536 1.02216
                                   CHANNELS 3 Zrotation Xrotation Yrotation
                                   End Site
                                   {
                                        OFFSET 16.74430 -0.60000 1.50291
                                   }
                              }
                         }
                    }
               }
               JOINT RightShoulder
               {
                    OFFSET -8.99000 -0.36225 -0.22000
                    CHANNELS 3 Zrotation Xrotation Yrotation
                    JOINT RightArm
                    {
                         OFFSET -10.28270 -0.00338 0.32212
                         CHANNELS 3 Zrotation Xrotation Yrotation
                         JOINT RightForeArm
                         {
                              OFFSET -32.89710 0.09914 -1.42434
                              CHANNELS 3 Zrotation Xrotation Yrotation
                              JOINT RightHand
                              {
                                   OFFSET -27.49210 0.08536 1.02216
                                   CHANNELS 3 Zrotation Xrotation Yrotation
                                   End Site
                                   {
                                        OFFSET -16.63120 -0.60000 1.50291
                                   }
                              }
                         }
                    }
               }
          }
     }
     JOINT LeftUpLeg
     {
          OFFSET 8.94580 -8.66707 0.10165
          CHANNELS 3 Zrotation Xrotation Yrotation
          JOINT LeftLeg
          {
               OFFSET 0.00000 -44.42270 1.37270
               CHANNELS 3 Zrotation Xrotation Yrotation
               JOINT LeftFoot
               {
                    OFFSET -0.25355 -42.09240 -1.46059
                    CHANNELS 3 Zrotation Xrotation Yrotation
                    JOINT LeftToes
                    {
                         OFFSET -0.04000 -4.41509 8.49910
                         CHANNELS 3 Zrotation Xrotation Yrotation
                         End Site
                         {
                              OFFSET 0.08000 -0.04745 9.77979
                         }
                    }
               }
          }
     }
     JOINT RightUpLeg
     {
          OFFSET -8.94580 -8.66707 0.10165
          CHANNELS 3 Zrotation Xrotation Yrotation
          JOINT RightLeg
          {
               OFFSET 0.00000 -44.42270 1.37270
               CHANNELS 3 Zrotation Xrotation Yrotation
               JOINT RightFoot
               {
                    OFFSET 0.25355 -42.09240 -1.46059
                    CHANNELS 3 Zrotation Xrotation Yrotation
                    JOINT RightToes
                    {
                         OFFSET 0.04000 -4.41509 8.49910
                         CHANNELS 3 Zrotation Xrotation Yrotation
                         End Site
                         {
                              OFFSET -0.08000 -0.13745 9.77979
                         }
                    }
               }
          }
     }
}
MOTION
Frames: 13
Frame Time: 0.01667
3.48210 92.14221 -23.48894 14.26298 15.45507 160.20944 1.77162 8.91888 -4.33517 -0.00925 0.00322 -0.00833 6.73825 -0.47521 -22.96109 0.16173 9.83462 5.60489 -87.68912 -33.39725 -76.80292 -59.93914 51.71066 -71.39051 25.13352 4.29542 -17.43733 13.64062 11.36325 1.70646 75.55511 -30.31054 72.97490 9.80565 19.18885 74.97574 13.92435 9.90259 9.66685 13.53146 -0.00861 -21.59165 -31.38270 3.04515 71.60236 -14.15529 0.00288 0.01041 21.36946 -22.45766 -71.14888 -6.69432 40.53118 5.81091 37.55171 17.48601 -28.38055 -30.02051 0.07244 0.05000 -4.16092 16.40824 40.40821 
3.87605 93.40758 -23.72445 18.64862 18.91804 166.12263 5.27661 12.65809 -9.68388 -0.00361 0.00721 -0.01306 8.85200 5.23890 -23.05291 0.42350 10.05775 4.57056 -86.97204 -31.71459 -74.68242 -58.45952 52.37568 -73.16257 25.25771 4.48643 -17.12040 16.80001 11.38273 -0.80137 71.99594 -31.43198 70.10818 9.55284 18.50471 75.67463 16.12255 9.83063 -17.81839 17.30814 3.03913 -29.56070 -30.87973 2.29025 71.27432 -16.44004 0.00524 0.01722 23.46946 -21.27623 -70.72588 1.01572 39.18176 -3.44600 40.19228 22.64482 -22.06350 -30.00361 0.05206 0.04355 2.13454 25.45708 23.24903 
4.26230 94.78136 -23.87285 22.36064 22.32722 171.05037 8.48379 15.50788 -13.96932 -0.00458 0.01210 -0.01681 11.49675 11.96999 -23.10984 0.79910 10.64211 3.20081 -86.34027 -30.27195 -72.75050 -57.31760 53.05643 -74.34246 25.51350 4.51183 -16.97613 19.96334 11.45832 -3.55292 66.45645 -33.29208 62.68849 9.26558 16.38230 76.27658 16.82751 10.20817 5.00728 21.20107 5.39658 -36.52617 -30.10488 1.54075 70.99359 -18.66470 0.00723 0.02283 25.37984 -19.83426 -70.12838 6.01802 35.74291 -11.20186 42.34726 27.21777 -17.71593 -29.91048 0.03620 -0.05716 -2.10589 10.72311 15.81944 
4.62958 96.15910 -23.92882 25.57342 25.59738 175.09886 11.32485 17.70114 -17.26538 0.00137 0.01658 -0.01979 14.62940 19.49982 -23.08335 1.34643 11.56159 1.74045 -85.83366 -28.88872 -70.76896 -59.96783 49.58908 -70.66867 22.33536 7.10419 -19.75161 23.60287 11.54378 -6.46177 61.85498 -34.36431 57.62401 9.20071 14.95177 76.74589 15.62141 10.19400 -4.68555 25.08145 7.24231 -42.55227 -29.07756 0.82693 70.81026 -20.78761 0.00946 0.02641 27.05377 -18.21159 -69.33083 8.29422 30.95937 -17.40771 44.27172 31.37286 -15.41956 -28.94985 0.00470 -0.09472 3.39745 23.09942 10.57915 
4.96014 97.46316 -23.88206 28.43330 28.70073 178.35449 13.78750 19.43665 -19.67310 0.00350 0.02065 -0.02340 18.21055 26.20432 -23.68579 2.14533 12.76703 0.16324 -85.34352 -27.53827 -68.73169 -60.78476 48.39111 -69.15284 20.94157 8.53125 -21.07559 38.65182 13.25776 -10.65042 49.06731 -38.36814 56.96152 9.46369 13.84955 77.04333 15.89974 10.42784 7.06134 28.84375 8.73813 -47.70088 -27.83387 0.18331 70.78135 -22.74349 0.01198 0.02764 28.44798 -16.51281 -68.34897 8.21045 25.34863 -22.40326 46.19847 35.53923 -15.11428 -27.75412 0.01208 -0.09419 -6.02948 9.65030 2.55981 
5.23594 98.60458 -23.69361 31.05603 31.65284 180.89063 16.26803 22.00203 -21.11634 0.00280 0.11792 -0.00160 22.25591 30.74547 -24.69559 3.53722 12.91064 -1.70022 -84.90972 -26.06102 -66.72739 -60.62920 48.40900 -68.85835 31.74950 0.87676 -8.04396 41.59821 11.34725 -13.19462 46.66040 -38.73356 54.11753 9.57474 13.00659 77.20402 15.33847 10.44976 0.15336 32.45941 10.06282 -52.05539 -26.48895 -1.08708 72.96538 -23.74023 0.03393 0.01320 29.04235 -10.56476 -54.38376 6.17208 19.21264 -26.59869 48.38673 39.86533 -16.61345 -26.22108 0.02085 -0.09908 -0.61776 23.42614 3.55623 
5.44076 99.49619 -23.31752 33.52796 34.47528 182.76358 19.09224 25.14849 -22.01655 0.01901 0.11407 -0.01689 26.17742 33.65969 -25.69981 5.39381 12.32923 -3.69206 -82.70619 -22.09488 -61.09773 -53.89080 49.61370 -75.47008 25.62783 5.38827 -13.41220 44.53922 8.85178 -15.37714 44.63026 -38.89016 51.89175 8.54330 12.30407 73.22231 14.99400 11.11529 11.51431 35.90411 11.30185 -55.69633 -25.18065 -2.55195 76.95388 -24.04161 0.02322 0.00136 29.19328 -12.06110 -66.31483 2.47100 12.77013 -30.33858 51.08745 44.53334 -19.76500 -24.64545 0.03488 -0.09313 -3.20492 24.10548 3.17527 
5.57578 100.07612 -22.73187 35.90036 37.17609 184.01659 22.42611 28.65411 -22.71763 0.03356 0.10627 -0.02705 29.52107 35.19547 -26.38443 6.96552 11.09598 -5.44384 -81.09271 -18.97443 -57.60876 -51.77382 45.84941 -74.83545 25.86813 4.06468 -14.74568 47.05574 6.01037 -16.87611 42.96218 -38.99073 49.99996 7.76504 11.76130 71.57247 14.91427 10.83562 -7.95521 39.07995 12.45563 -58.67351 -23.74890 -3.48809 80.36192 -24.34671 0.01387 0.01479 29.12943 -10.38153 -65.55133 -2.68660 6.20350 -33.89649 54.67529 49.42022 -24.54842 -22.92676 0.04705 -0.09611 -2.34113 30.55017 4.13071 
5.67217 100.31110 -21.95821 38.18167 39.74495 184.69344 26.27239 32.36590 -23.49824 0.04087 0.09987 -0.03494 31.99827 35.68396 -26.52539 7.96256 9.32492 -6.71661 -79.57661 -16.24881 -55.34643 -50.00911 43.39036 -75.42748 20.61592 7.52426 -19.66999 48.95665 3.04856 -17.58738 41.57541 -39.06010 48.23075 7.15143 11.16717 71.21361 14.35988 11.34728 12.01238 41.88719 13.51961 -61.01604 -22.31403 -4.06229 83.26286 -24.49648 0.00828 0.01013 29.24239 -10.58416 -70.19073 -9.20373 -0.26062 -37.45982 59.63992 54.25062 -31.11723 -21.35550 0.05756 -0.09008 -11.82938 17.95854 7.03639 
5.78938 100.15395 -21.09112 40.34793 42.14995 184.86398 29.55141 35.22923 -23.94991 0.01576 -0.00088 -0.03545 34.43153 36.44968 -26.97243 8.78152 8.37798 -7.89324 -78.03217 -13.87445 -53.89774 -48.37267 41.39878 -76.47401 21.80516 6.60133 -18.72423 50.57319 0.93688 -18.32425 40.35049 -39.20824 46.44132 6.65453 10.34817 70.90948 14.40642 11.09216 -0.36229 43.87714 14.22977 -61.53556 -21.10147 -3.39045 84.80434 -24.57471 0.00476 0.00701 29.20086 -10.23229 -71.57950 -17.17594 -6.44146 -41.14160 66.93376 58.44662 -40.03962 -20.10134 0.05688 -0.07811 -7.54512 28.74330 8.63343 
5.97794 99.68094 -20.23613 42.35347 44.35188 184.62286 32.07635 37.39479 -24.02515 0.01509 -0.00221 -0.03219 36.70523 37.27861 -27.56978 9.30861 7.87608 -8.91545 -76.36636 -11.68815 -52.92363 -46.75064 39.68506 -77.73475 19.07612 8.47084 -20.68115 51.68822 -0.58389 -19.01973 39.40748 -39.28994 44.78588 6.27949 9.27217 70.71231 13.93712 11.39315 11.37827 45.11693 14.58026 -60.42351 -20.23014 -1.52363 85.06924 -24.75143 0.00480 0.00763 29.22866 -10.47184 -74.10606 -26.74747 -12.12924 -45.02285 74.97110 60.56120 -50.31274 -29.64921 -0.25229 0.58422 -2.92139 14.95528 9.42246 
6.26426 99.03399 -19.49772 44.16691 46.33481 184.06866 33.73842 38.99734 -23.70941 0.01422 0.00191 -0.02955 37.69751 37.12419 -28.02724 9.58804 7.76181 -9.81886 -74.60694 -9.68462 -52.27810 -45.13126 37.93061 -79.00273 20.13773 7.77487 -19.77658 52.30144 -1.56512 -19.64985 38.69175 -39.32037 43.29298 5.99344 7.88282 70.08536 13.90082 11.17514 4.01965 46.14843 14.99568 -59.06456 -19.51320 0.49892 84.98003 -25.09131 0.00590 0.00888 29.09328 -10.74104 -75.66155 -37.93055 -17.13458 -49.12391 82.13481 60.57458 -58.74697 -27.22513 0.03150 -0.16846 -4.90928 10.73159 10.80801 
6.65275 98.35484 -18.95497 45.78487 48.10815 183.28796 34.51154 40.14275 -23.01648 0.01187 0.00579 -0.02720 37.58797 36.18943 -28.40135 9.71057 7.99469 -10.53623 -72.86912 -7.79905 -51.88870 -43.53961 36.16859 -80.24437 18.56087 8.70781 -20.59598 52.53462 -2.04225 -20.30673 38.22982 -39.26917 42.16959 5.73772 6.26666 69.31261 13.57088 11.67779 11.21448 47.05240 15.46908 -57.52617 -18.96125 2.63424 84.57098 -25.61286 0.00709 0.00956 28.91994 -11.27142 -77.26655 -50.54013 -21.25811 -53.33882 87.34113 58.89878 -64.85226 -29.51279 -0.10952 0.20641 -5.98579 10.00413 6.96382 
